
<svg version="1.1" xmlns="http://www.w3.org/2000/svg" xmlns:xlink="http://www.w3.org/1999/xlink" x="0px" y="0px"
	 viewBox="0 0 841 595" style="enable-background:new 0 0 841 595;" xml:space="preserve">
<style type="text/css">
	.st1{fill:none;stroke:#990202;stroke-width:2;stroke-linecap:square;stroke-linejoin:bevel;}
</style>
<g transform="matrix(0.999751,0,0,0.999751,0,0)">
	<path  class="st1" d="M87.7,99.1h51.9v79h-25.3v21.3H87.7v-10.3h-2.6v-14.2h2.6V99.1"/>
	<path  class="st1" d="M139.6,99.1h50.3v100.4h-24.8v-21.3h-25.5V99.1"/>
	<path  class="st1" d="M189.9,99.1l50.3,0.3v78.8h-25.6v21.3h-24.8V99.1"/>
	<path  class="st1" d="M240.2,99.4l50.3-0.3v100.4h-25.3v-21.3h-25V99.4"/>
	<path  class="st1" d="M290.6,99.1l50.3,0.3v78.8h-25.3v21.3h-25V99.1"/>
	<path  class="st1" d="M340.9,99.4l51.9-0.3V175h2.6v14H393v10.8h-26.9v-21.6h-25.3L340.9,99.4"/>
	<path  class="st1" d="M422.8,99.4l51.9-0.3v79h-25.3v21.3h-26.6v-10.3h-2.9v-14.2h2.9V99.4"/>
	<path  class="st1" d="M474.7,99.1h50.1v100.4H500v-21.3h-25.3L474.7,99.1"/>
	<path  class="st1" d="M524.7,99.1H575v79h-24.8v21.3h-25.6L524.7,99.1"/>
	<path  class="st1" d="M575.1,99.1h50.1v100.4h-24.8v-21.3h-25.3V99.1"/>
	<path  class="st1" d="M625.1,99.1h50.6v79h-25.3v21.3h-25.3V99.1"/>
	<path  class="st1" d="M675.7,99.1h50.6v100.4h-25.6v-21.3h-25V99.1"/>
	<path  class="st1" d="M726.3,99.1l51.6,0.3V175h2.9v14.2h-2.9v10.3h-26.6v-21.3h-25V99.1"/>
	<path  class="st1" d="M63.7,392.9h52.2v103H92.7v-3.2h-29v-8.2h-3.4v-14.2h3.4V392.9"/>
	<path  class="st1" d="M115.9,392.9h50.3v99.8h-27.4v3.2h-22.9L115.9,392.9"/>
	<path  class="st1" d="M166.2,392.9h50.3v103h-23.2v-0.5v-2.6h-27.1V392.9"/>
	<path  class="st1" d="M216.5,392.9h50.3v99.8h-27.7v3.2h-22.7v-103"/>
	<path  class="st1" d="M266.8,392.9h50.1v103h-22.7v-3.2h-27.4V392.9"/>
	<path  class="st1" d="M316.9,392.9h52.2v77.4h3.7v14.2h-3.7v8.2h-29v3.2h-23.2V392.9"/>
	<path  class="st1" d="M392.8,392.9h52.4v103h-52.4v-9.7h-3.2v-14.3h3.2V392.9"/>
	<path  class="st1" d="M445.2,392.9h50.3v103h-23.2v-3.2h-27.1L445.2,392.9"/>
	<path  class="st1" d="M495.5,392.9h49.8v99.8h-27.1v3.2h-22.7L495.5,392.9"/>
	<path  class="st1" d="M545.3,392.9h50.6v103h-50.6v-3.2V392.9"/>
	<path  class="st1" d="M595.9,392.9h50.3v103h-22.9V493h-27.4L595.9,392.9"/>
	<path  class="st1" d="M646.2,392.9h50.1v99.8h-27.4v3.2h-22.7L646.2,392.9"/>
	<path  class="st1" d="M696.2,392.9h52.4v79h3.2v14.2h-3.4v9.7h-52.2v-3.2V392.9"/>
</g>
</svg>
