
<svg version="1.1"  xmlns="http://www.w3.org/2000/svg" xmlns:xlink="http://www.w3.org/1999/xlink" x="0px" y="0px"
	 viewBox="0 0 2001 1785" style="enable-background:new 0 0 2001 1785;" xml:space="preserve">
<style type="text/css">
	.st0{fill:none;stroke:#FFFFFF;stroke-width:7;}
</style>
<g transform="matrix(0.999751,0,0,0.999751,0,0)">
	<path vector-effect="none" class="st0" d="M442.4,440.6h95.1v144.8h-46.4v39h-48.8v-18.9h-4.8v-26h4.8V440.6"/>
	<path vector-effect="none" class="st0" d="M537.6,440.6h92.2v184h-45.5v-39h-46.7V440.6"/>
	<path vector-effect="none" class="st0" d="M629.8,440.6l92.2,0.5v144.4H675v39h-45.5v-184"/>
	<path vector-effect="none" class="st0" d="M722,441.2l92.2-0.5v184h-46.4v-39H722V441.2"/>
	<path vector-effect="none" class="st0" d="M814.4,440.6l92.2,0.5v144.4h-46.4v39h-45.8V440.6"/>
	<path vector-effect="none" class="st0" d="M906.5,441.2l95.1-0.5v139.1h4.8v25.7h-4.4v19.8h-49.3v-39.6h-46.4V441.2"/>
	<path vector-effect="none" class="st0" d="M1056.7,441.2l95.1-0.5v144.8h-46.4v39h-48.8v-18.9h-5.3v-26h5.3V441.2"/>
	<path vector-effect="none" class="st0" d="M1151.8,440.6h91.8v184h-45.5v-39h-46.4L1151.8,440.6"/>
	<path vector-effect="none" class="st0" d="M1243.5,440.6h92.2v144.8h-45.5v39h-46.9V440.6"/>
	<path vector-effect="none" class="st0" d="M1335.8,440.6h91.8v184h-45.5v-39h-46.4V440.6"/>
	<path vector-effect="none" class="st0" d="M1427.5,440.6h92.7v144.8h-46.4v39h-46.4V440.6"/>
	<path vector-effect="none" class="st0" d="M1520.2,440.6h92.7v184h-46.9v-39h-45.8V440.6"/>
	<path vector-effect="none" class="st0" d="M1613,440.6l94.6,0.5v138.6h5.3v26h-5.3v18.9h-48.8v-39H1613V440.6"/>
	<path vector-effect="none" class="st0" d="M398.4,979.2h95.7v188.8h-42.5v-5.9h-53.2v-15h-6.2v-26h6.2V979.2"/>
	<path vector-effect="none" class="st0" d="M494.1,979.2h92.2v182.9h-50.2v5.9h-42V979.2"/>
	<path vector-effect="none" class="st0" d="M586.3,979.2h92.2v188.8H636v-0.9v-4.8h-49.7V979.2"/>
	<path vector-effect="none" class="st0" d="M678.5,979.2h92.2v182.9H720v5.9h-41.6V979.2"/>
	<path vector-effect="none" class="st0" d="M770.7,979.2h91.8v188.8h-41.6v-5.9h-50.2V979.2"/>
	<path vector-effect="none" class="st0" d="M862.6,979.2h95.7V1121h6.8v26h-6.8v15h-53.2v5.9h-42.5V979.2"/>
	<path vector-effect="none" class="st0" d="M1001.7,979.2h96v188.8h-96v-17.8h-5.9V1124h5.9V979.2"/>
	<path vector-effect="none" class="st0" d="M1097.7,979.2h92.2v188.8h-42.5v-5.9h-49.7L1097.7,979.2"/>
	<path vector-effect="none" class="st0" d="M1189.9,979.2h91.3v182.9h-49.7v5.9h-41.6L1189.9,979.2"/>
	<path vector-effect="none" class="st0" d="M1281.2,979.2h92.7v188.8h-92.7v-5.9V979.2"/>
	<path vector-effect="none" class="st0" d="M1374,979.2h92.2v188.8h-42v-5.3H1374L1374,979.2"/>
	<path vector-effect="none" class="st0" d="M1466.2,979.2h91.8v182.9h-50.2v5.9h-41.6L1466.2,979.2"/>
	<path vector-effect="none" class="st0" d="M1557.8,979.2h96V1124h5.9v26h-6.2v17.8h-95.7v-5.9V979.2"/>
</g>
</svg>
